<?xml version="1.0" encoding="UTF-8"?><svg xmlns="http://www.w3.org/2000/svg" viewBox="0 0 360 360"><defs><style>.cls-1,.cls-2{font-family:BodoniURW-Reg, 'Bodoni URW';}.cls-1,.cls-2,.cls-3{font-size:56.59px;}.cls-1,.cls-2,.cls-4{fill:#c3b196;}.cls-1,.cls-3{letter-spacing:-.06em;}.cls-2{letter-spacing:-.06em;}.cls-3{font-family:Didot, Didot;}.cls-3,.cls-5{fill:#ad8970;}.cls-6{fill:#efaf42;}.cls-7{fill:#50bbd9;}.cls-7,.cls-5,.cls-8{mix-blend-mode:multiply;}.cls-9{mix-blend-mode:screen;}.cls-10{isolation:isolate;}.cls-11{stroke:#c3b196;}.cls-11,.cls-12{fill:none;stroke-miterlimit:10;stroke-width:.5px;}.cls-12{stroke:#ad8970;}</style></defs><g class="cls-10"><g id="Layer_1"><g class="cls-8"><path class="cls-7" d="m73.41,25.75c0-1.02.22-1.96.67-2.83s1.01-1.62,1.71-2.25,1.47-1.12,2.33-1.47,1.7-.53,2.53-.53,1.67.18,2.53.53,1.63.84,2.33,1.47,1.26,1.38,1.71,2.25c.44.87.67,1.81.67,2.83s-.21,1.89-.62,2.74c-.41.86-.96,1.61-1.63,2.25-.67.64-1.44,1.15-2.31,1.52-.87.37-1.76.56-2.67.56s-1.8-.18-2.67-.56c-.87-.37-1.64-.88-2.31-1.52-.67-.64-1.22-1.39-1.63-2.25-.41-.86-.62-1.77-.62-2.74Zm3.1,0c0,1.47.11,2.64.34,3.51.23.87.53,1.54.9,2,.37.46.81.77,1.3.91.5.15,1.02.22,1.58.22s1.09-.07,1.58-.22c.5-.14.93-.45,1.3-.91.37-.47.67-1.13.9-2s.34-2.04.34-3.51c0-1.24-.08-2.28-.25-3.12-.17-.84-.42-1.52-.76-2.05s-.77-.91-1.29-1.13c-.52-.23-1.13-.34-1.83-.34s-1.31.11-1.83.34c-.52.23-.95.61-1.29,1.13-.34.53-.59,1.21-.76,2.05-.17.84-.25,1.88-.25,3.12Z"/></g><path class="cls-5" d="m187.13,130.66c0-1.59.35-3.07,1.04-4.43s1.59-2.53,2.67-3.52,2.3-1.76,3.65-2.31,2.67-.83,3.96-.83,2.62.28,3.96.83,2.56,1.32,3.65,2.31,1.98,2.16,2.67,3.52c.7,1.36,1.04,2.84,1.04,4.43s-.32,2.96-.97,4.3c-.65,1.35-1.5,2.52-2.55,3.53-1.05,1.01-2.26,1.8-3.62,2.38-1.36.59-2.76.87-4.18.87s-2.82-.29-4.18-.87c-1.36-.58-2.57-1.38-3.62-2.38-1.05-1.01-1.91-2.18-2.55-3.53-.65-1.35-.97-2.78-.97-4.3Zm4.86,0c0,2.3.18,4.13.53,5.49.36,1.36.83,2.41,1.41,3.14.58.73,1.26,1.21,2.04,1.43.78.23,1.6.34,2.48.34s1.7-.11,2.48-.34c.78-.23,1.46-.7,2.04-1.43.58-.73,1.05-1.78,1.41-3.14s.54-3.19.54-5.49c0-1.95-.13-3.58-.39-4.89-.26-1.31-.66-2.38-1.19-3.21s-1.21-1.42-2.02-1.78c-.81-.36-1.77-.53-2.87-.53s-2.06.18-2.87.53c-.81.36-1.48.95-2.02,1.78-.53.83-.93,1.9-1.19,3.21-.26,1.31-.39,2.94-.39,4.89Z"/><g class="cls-8"><path class="cls-7" d="m92.12,40.64h2.39v-21.13h-2.39v-.43h5v2.61h.06c.31-.87.82-1.59,1.54-2.16.71-.57,1.64-.85,2.78-.85.89,0,1.73.19,2.51.57.79.38,1.48.89,2.08,1.52.6.63,1.08,1.37,1.43,2.22.35.85.53,1.74.53,2.67s-.18,1.86-.54,2.71c-.36.86-.85,1.62-1.47,2.28-.62.66-1.34,1.19-2.16,1.58-.82.39-1.68.59-2.59.59-.7,0-1.3-.12-1.78-.36s-.88-.52-1.19-.84-.55-.65-.71-.99c-.17-.34-.28-.62-.34-.82h-.06v10.83h2.39v.43h-7.45v-.43Zm12.82-15.36c0-.95-.05-1.8-.16-2.56s-.28-1.4-.54-1.94-.62-.95-1.09-1.24-1.06-.43-1.78-.43c-.77,0-1.4.13-1.89.4-.5.27-.9.61-1.21,1.02-.23.29-.41.6-.54.93-.14.33-.24.72-.33,1.18-.08.45-.14.98-.17,1.57-.03.59-.05,1.29-.05,2.1,0,.68.05,1.39.16,2.11.1.72.3,1.38.59,1.97.29.59.7,1.07,1.23,1.44.53.37,1.22.56,2.09.56s1.52-.16,2.02-.49.87-.81,1.12-1.43c.25-.62.4-1.37.46-2.25.06-.88.09-1.86.09-2.93Z"/></g><g class="cls-8"><path class="cls-7" d="m121.39,40.64h2.39v-10.83h-.06c-.06.21-.18.48-.34.82s-.4.67-.71.99-.71.6-1.19.84c-.49.24-1.08.36-1.78.36-.91,0-1.78-.2-2.59-.59-.82-.39-1.54-.92-2.16-1.58-.62-.66-1.11-1.42-1.47-2.28-.36-.86-.54-1.76-.54-2.71s.18-1.82.53-2.67c.35-.85.83-1.59,1.43-2.22.6-.63,1.29-1.14,2.08-1.52.79-.38,1.62-.57,2.51-.57,1.14,0,2.06.28,2.78.84s1.23,1.28,1.54,2.17h.06v-2.61h5v.43h-2.39v21.13h2.39v.43h-7.45v-.43Zm-5.37-15.36c0,1.08.03,2.05.09,2.93.06.88.22,1.63.47,2.25.25.62.62,1.1,1.12,1.43.5.33,1.17.49,2.02.49s1.57-.18,2.09-.56c.53-.37.94-.85,1.23-1.44.29-.59.48-1.25.59-1.97.1-.72.16-1.43.16-2.11,0-.81-.02-1.51-.05-2.1-.03-.59-.09-1.11-.17-1.57-.08-.45-.2-.85-.34-1.18s-.32-.64-.53-.93c-.31-.41-.71-.76-1.21-1.02-.5-.27-1.13-.4-1.89-.4-.72,0-1.32.14-1.78.43-.47.29-.83.7-1.09,1.24-.26.54-.44,1.18-.54,1.94s-.15,1.61-.15,2.56Z"/></g><g class="cls-8"><path class="cls-7" d="m133.26,31.96h2.39v-12.44h-2.39v-.43h5v3.13h.06c.08-.31.22-.66.4-1.06.19-.39.44-.77.78-1.13.33-.36.73-.67,1.2-.91.46-.25,1.03-.37,1.69-.37.48,0,.89.08,1.24.23.35.15.64.35.87.59s.39.51.5.82.16.62.16.93c0,.68-.16,1.14-.46,1.37-.31.23-.67.34-1.09.34-.91,0-1.36-.29-1.36-.87,0-.19.02-.34.06-.45s.09-.23.14-.34c.05-.11.1-.24.14-.39.04-.14.06-.35.06-.62,0-.66-.36-.99-1.09-.99-.33,0-.68.12-1.05.37-.37.25-.72.61-1.04,1.09-.32.47-.59,1.05-.81,1.72-.22.67-.33,1.44-.33,2.31v7.11h2.7v.43h-7.76v-.43Z"/></g><g class="cls-8"><path class="cls-7" d="m150.45,28.05h.34c.14.5.33,1,.56,1.51.23.51.53.97.92,1.4s.85.77,1.41,1.04c.56.27,1.23.4,2.02.4.66,0,1.25-.2,1.77-.6.52-.4.78-1.06.78-1.97,0-.79-.2-1.34-.6-1.66-.4-.32-.88-.57-1.41-.76l-2.42-.84c-.31-.1-.65-.23-1.01-.39-.36-.16-.7-.37-1.01-.65-.31-.28-.56-.63-.76-1.07-.2-.44-.3-.99-.3-1.68,0-.58.11-1.12.34-1.61.23-.5.54-.93.93-1.3.39-.37.86-.66,1.41-.87s1.14-.31,1.78-.31c.46,0,.82.04,1.1.11s.52.14.73.22.39.14.56.22c.17.07.36.11.59.11s.39-.08.5-.25h.34v3.54h-.34c-.15-.46-.31-.9-.5-1.32-.19-.42-.41-.8-.67-1.13s-.58-.59-.96-.78c-.38-.19-.83-.28-1.35-.28-.99,0-1.76.22-2.31.67s-.82,1.04-.82,1.79c0,.66.23,1.16.7,1.51.47.34,1.15.66,2.06.94l2.27.74c.97.33,1.77.79,2.39,1.37.62.58.93,1.35.93,2.3,0,.56-.11,1.11-.33,1.65s-.54,1.01-.96,1.41c-.42.4-.94.73-1.55.98-.61.25-1.31.37-2.09.37-.46,0-.88-.05-1.26-.14s-.73-.19-1.05-.3c-.32-.1-.62-.2-.89-.29-.27-.09-.52-.14-.74-.14s-.39.05-.5.14c-.1.09-.19.19-.25.29h-.34v-4.34Z"/></g><g class="cls-8"><path class="cls-7" d="m164.66,19.08h2.39v-4c.17.06.32.11.47.15.14.04.39.06.74.06.31,0,.58-.04.81-.11.23-.07.44-.19.65-.36v4.25h4.41v.43h-4.41v10.15c0,.58.06,1.05.17,1.41s.26.64.45.84c.19.2.39.33.6.39.22.06.43.09.64.09.72,0,1.31-.26,1.75-.79.44-.53.73-1.13.85-1.82l.43.15c-.06.27-.16.57-.28.9-.13.33-.32.65-.57.95-.26.3-.59.55-1.01.74-.41.19-.93.29-1.55.29-1.55,0-2.63-.3-3.24-.9-.61-.6-.92-1.45-.92-2.55v-9.87h-2.39v-.43Z"/></g><g class="cls-8"><path class="cls-7" d="m196.02,32.39h-5v-3.13h-.06c-.19.41-.41.83-.67,1.26-.26.42-.58.81-.96,1.15-.38.34-.83.62-1.34.84s-1.1.33-1.78.33c-.83,0-1.5-.09-2.02-.28-.52-.19-.92-.38-1.21-.59-.15-.1-.31-.23-.48-.39-.17-.16-.34-.37-.48-.64-.15-.27-.27-.62-.37-1.04s-.15-.95-.15-1.57v-8.81h-2.39v-.43h5.06v9.53c0,.54.04,1.04.11,1.49.07.45.21.85.42,1.19.2.34.47.61.81.81.33.19.77.29,1.3.29.45,0,.93-.13,1.41-.4.49-.27.93-.65,1.34-1.15.4-.5.74-1.09,1.01-1.79.27-.69.4-1.47.4-2.34v-7.2h-2.36v-.43h5.03v12.88h2.39v.43Z"/></g><g class="cls-8"><path class="cls-7" d="m198.74,19.08h7.51v.43h-2.54l4,9.74,4.16-9.74h-2.54v-.43h4.72v.43h-1.68l-5.86,13.9-5.65-13.9h-2.11v-.43Z"/></g><g class="cls-8"><path class="cls-7" d="m217.68,19.08h7.48v.43h-2.58l3.47,9.68,3.23-7.67-.78-2.02h-1.3v-.43h6.17v.43h-2.08l3.6,9.62,3.88-9.62h-2.92v-.43h5.06v.43h-1.64l-5.56,13.9-4.22-11.27-4.72,11.27-5-13.9h-2.11v-.43Z"/></g><g class="cls-8"><path class="cls-5" d="m254.54,181.55h11.72v.68h-4.04l5.44,15.17,5.06-12.01-1.21-3.16h-2.04v-.68h9.67v.68h-3.26l5.64,15.07,6.08-15.07h-4.57v-.68h7.93v.68h-2.58l-8.71,21.78-6.61-17.65-7.39,17.65-7.83-21.78h-3.31v-.68Z"/></g><g class="cls-8"><path class="cls-7" d="m244.49,31.96h1.64l4.25-5.71-4.62-6.73h-1.74v-.43h7.29v.43h-2.45l3.19,4.65,3.35-4.65h-2.3v-.43h4.56v.43h-1.64l-3.69,5.09,5.06,7.35h1.71v.43h-7.26v-.43h2.45l-3.63-5.28-3.91,5.28h2.3v.43h-4.56v-.43Z"/></g><g class="cls-8"><path class="cls-7" d="m263.04,19.08h7.6v.43h-2.61l4,9.74,4.19-9.74h-2.58v-.43h4.75v.43h-1.68l-5.12,11.98c-.39.89-.77,1.78-1.12,2.68-.35.9-.7,1.8-1.05,2.71-.29.74-.58,1.4-.87,1.95-.29.56-.6,1.01-.92,1.37-.32.35-.67.61-1.04.79-.37.18-.81.27-1.3.27-.6,0-1.08-.09-1.44-.28s-.65-.4-.85-.65-.34-.51-.4-.78c-.06-.27-.09-.5-.09-.68,0-.52.15-.9.43-1.16.29-.26.64-.39,1.06-.39.14,0,.3.02.47.05.16.03.32.09.46.17.14.08.27.2.37.34s.16.32.16.53c0,.29-.09.56-.27.82-.17.26-.26.54-.26.85,0,.27.07.44.22.53.14.08.34.12.59.12.33,0,.64-.08.92-.23.28-.16.55-.41.82-.76.27-.35.54-.81.81-1.38.27-.57.57-1.27.9-2.1l1.37-3.47-5.37-13.28h-2.14v-.43Z"/></g><g class="cls-8"><path class="cls-7" d="m284.3,19.08h9.84l-7.72,12.88h4.37c.6,0,1.09-.12,1.47-.36.38-.24.69-.54.93-.9.24-.36.42-.75.56-1.16.13-.41.26-.81.39-1.18h.25l-.4,4.03h-10.8l7.72-12.88h-2.67c-.52,0-.97.02-1.35.05s-.73.14-1.04.33c-.31.19-.6.49-.87.9-.27.41-.56,1-.87,1.77h-.25l.43-3.47Z"/></g><g class="cls-8"><path class="cls-6" d="m86.76,27.21c0,3.47-2.85,6.33-6.27,6.33s-6.3-2.85-6.3-6.42,2.82-6.39,6.26-6.39,6.3,2.85,6.3,6.48Zm-8.9-4.46c-.31.62-.34,1.05-.34,4.37,0,3.6.03,3.94.5,4.62.5.74,1.27,1.09,2.48,1.09,1.27,0,2.14-.43,2.6-1.33.31-.59.34-1.06.34-4.31,0-3.63-.03-4-.5-4.65-.5-.74-1.27-1.09-2.51-1.09s-2.11.43-2.57,1.3Z"/></g><path class="cls-4" d="m259.22,131.18c0,5.44-4.47,9.92-9.82,9.92s-9.86-4.47-9.86-10.06,4.42-10.01,9.82-10.01,9.87,4.47,9.87,10.16Zm-13.95-7c-.49.97-.53,1.65-.53,6.85,0,5.64.05,6.17.78,7.24.78,1.17,1.99,1.7,3.89,1.7,1.99,0,3.35-.68,4.08-2.09.49-.92.53-1.65.53-6.75,0-5.69-.05-6.27-.78-7.29-.78-1.17-1.99-1.7-3.94-1.7s-3.31.68-4.03,2.04Z"/><g class="cls-8"><path class="cls-6" d="m95.11,21.66h-2.08v-.62h4.87v2.27c.81-1.71,2.11-2.58,3.75-2.58,2.82,0,5.12,2.76,5.12,6.17s-2.42,6.64-5.24,6.64c-1.64,0-2.79-.87-3.63-2.73v10.08h2.05v.62h-6.92v-.62h2.08v-19.23Zm4.4.59c-.99.87-1.52,2.51-1.52,4.74,0,3.57,1.27,5.83,3.32,5.83.84,0,1.4-.43,1.74-1.36.28-.71.4-2.17.4-4.62,0-2.98-.13-3.94-.5-4.53-.37-.59-.93-.87-1.64-.87-.65,0-1.18.22-1.8.81Z"/></g><g class="cls-8"><path class="cls-6" d="m125.42,40.89h2.08v.62h-7.26v-.62h2.39v-9.92c-.68,1.61-2.02,2.58-3.5,2.58-2.95,0-5.4-2.95-5.4-6.55s2.33-6.27,5.21-6.27c1.52,0,2.98.99,3.69,2.54v-2.23h4.87v.62h-2.08v19.23Zm-8.03-18.11c-.25.71-.34,2.02-.34,4.99,0,1.98.06,2.85.28,3.47.31.99,1.05,1.58,2.02,1.58.78,0,1.58-.46,2.17-1.24.74-.99,1.02-2.11,1.02-4.22,0-2.76-.43-4.22-1.52-5.18-.53-.5-1.15-.74-1.74-.74-.81,0-1.61.56-1.89,1.33Z"/></g><g class="cls-8"><path class="cls-6" d="m136.06,21.66h-2.08v-.62h4.87v2.95c.84-2.2,1.92-3.26,3.35-3.26,1.15,0,1.95.74,1.95,1.8,0,.9-.65,1.58-1.52,1.58-.81,0-1.33-.56-1.4-1.46-.03-.56-.06-.65-.31-.65-.22,0-.56.31-.84.78-.93,1.58-1.24,3.35-1.24,6.95v2.88h2.05v.62h-6.92v-.62h2.08v-10.95Z"/></g><g class="cls-8"><path class="cls-6" d="m158.84,24.54h-.46c-.28-1.86-1.71-3.1-3.54-3.1-1.49,0-2.67.96-2.67,2.17,0,.93.65,1.33,3.04,1.73,1.92.34,2.7.71,3.38,1.49.53.62.81,1.55.81,2.54,0,2.39-1.7,4.16-3.97,4.16-1.21,0-2.05-.34-3.26-1.3l-.74.99h-.34l-.09-4.65h.43c.34,1.27.65,2.08,1.12,2.76.65.93,1.74,1.49,2.92,1.49,1.58,0,2.79-1.02,2.79-2.36,0-1.18-.71-1.64-2.92-2.02-1.92-.31-2.67-.62-3.29-1.27-.59-.65-.93-1.61-.93-2.67,0-2.17,1.55-3.79,3.66-3.79,1.12,0,1.95.31,3.01,1.15l.5-.99h.47l.09,3.66Z"/></g><g class="cls-8"><path class="cls-6" d="m170.2,21.04h3.1v.62h-3.1v8.81c0,.9.03,1.21.25,1.52.22.37.65.59,1.18.59.93,0,1.46-.53,1.67-1.67h.65c-.31,1.73-1.43,2.64-3.29,2.64-1.15,0-2.08-.37-2.67-1.12-.53-.65-.59-.96-.59-2.88v-7.88h-1.89v-.43c2.05-1.12,3.44-2.76,4.19-4.93h.5v4.74Z"/></g><g class="cls-8"><path class="cls-6" d="m192.99,32.61h2.05v.62h-4.84v-1.71c-.87,1.37-2.2,2.02-4.06,2.02-1.36,0-2.51-.4-3.22-1.12-.81-.78-.96-1.55-.96-4.15v-6.61h-2.08v-.62h4.87v7.23c0,3.04.06,3.6.43,4.03.31.34.87.53,1.55.53,1.12,0,2.14-.56,2.7-1.43.62-.99.78-2.02.78-5.4v-4.34h-2.08v-.62h4.87v11.57Z"/></g><g class="cls-8"><path class="cls-6" d="m208.58,33.54h-1.09l-4.74-11.88h-1.3v-.62h6.58v.62h-2.23l3.26,8.34,3.19-8.34h-2.36v-.62h4.43v.62h-1.24l-4.5,11.88Z"/></g><g class="cls-8"><path class="cls-4" d="m330.47,204.4h-1.51l-5.15-13.41-4.13,13.41h-1.51l-7.14-18.61h-2.24v-.97h10.2v.97h-3.21l4.57,12.59,4.18-13.56h1.7l5.01,13.56,3.74-12.59h-3.74v-.97h7.29v.97h-2.28l-5.79,18.61Z"/></g><g class="cls-8"><path class="cls-6" d="m257.04,32.61h1.27v.62h-5.83v-.62h1.3l-3.01-4.37-3.26,4.37h2.36v.62h-4.96v-.62h1.71l3.75-4.99-4.06-5.95h-1.4v-.62h6.51v.62h-1.83l2.48,3.69,2.79-3.69h-2.02v-.62h5.06v.62h-2.11l-3.32,4.34,4.56,6.61Z"/></g><g class="cls-8"><path class="cls-6" d="m269.55,38.16c-.84,2.36-1.74,3.29-3.13,3.29-1.02,0-1.77-.65-1.77-1.52s.62-1.46,1.49-1.46c.56,0,.99.22,1.3.65.19.28.28.34.46.34.31,0,.4-.15.99-1.64l1.74-4.59-5.27-11.57h-1.33v-.62h6.61v.62h-2.17l3.44,7.94,2.88-7.94h-2.45v-.62h4.53v.62h-1.24l-6.08,16.5Z"/></g><g class="cls-8"><path class="cls-6" d="m286.5,32.61h2.45c2.85,0,3.35-.53,4.34-4.56h.4l-.06,5.18h-10.67l7.47-11.57h-1.64c-2.67-.06-3.26.49-4.28,4.12h-.4v-4.74h9.98l-7.6,11.57Z"/></g><g class="cls-8"><path class="cls-7" d="m72.54,1.14h2.39v-21.5h-2.39v-.43h5.06v11.54h.06c.29-.81.79-1.49,1.49-2.05s1.62-.84,2.76-.84c.89,0,1.73.19,2.51.57.79.38,1.48.89,2.08,1.52.6.63,1.08,1.37,1.43,2.22.35.85.53,1.74.53,2.67s-.18,1.86-.54,2.71c-.36.86-.85,1.62-1.47,2.28-.62.66-1.34,1.19-2.16,1.58-.82.39-1.68.59-2.59.59-.7,0-1.3-.12-1.78-.36-.49-.24-.89-.52-1.21-.85s-.56-.67-.73-1.03-.29-.65-.37-.9h-.06V1.58h-5v-.43Zm12.82-6.67c0-.95-.05-1.8-.16-2.56s-.28-1.4-.54-1.94-.62-.95-1.09-1.24c-.47-.29-1.06-.44-1.78-.44-.77,0-1.4.14-1.89.4-.5.27-.9.61-1.21,1.02-.23.29-.41.6-.54.93-.14.33-.24.72-.33,1.18-.08.46-.14.98-.17,1.57-.03.59-.05,1.29-.05,2.09,0,.68.05,1.39.16,2.11s.3,1.38.59,1.97c.29.59.7,1.07,1.23,1.44.53.37,1.22.56,2.09.56s1.52-.17,2.02-.5.87-.81,1.12-1.43c.25-.62.4-1.37.46-2.25s.09-1.86.09-2.93Z"/></g><g class="cls-8"><path class="cls-6" d="m75.26-17.65h-2.08v-.62h4.87V-7.57c.71-1.61,2.05-2.51,3.72-2.51,2.85,0,5.24,2.82,5.24,6.27s-2.48,6.54-5.4,6.54c-1.61,0-2.7-.74-3.57-2.42v2.11h-4.87v-.62h2.08v-19.45Zm2.73,13.89c0,3.41,1.4,5.77,3.44,5.77,1.02,0,1.83-.71,2.11-1.8.09-.49.16-1.43.16-3.57,0-2.95-.06-3.97-.31-4.56-.37-.93-1.09-1.46-2.02-1.46-1.98,0-3.38,2.36-3.38,5.61Z"/></g><g class="cls-8"><path class="cls-7" d="m106.01-1.84c-.06.23-.18.55-.36.98s-.45.85-.84,1.27c-.38.42-.9.8-1.55,1.12s-1.49.48-2.53.48c-.79,0-1.6-.12-2.45-.37-.85-.25-1.62-.65-2.33-1.19s-1.28-1.27-1.72-2.16c-.44-.89-.67-1.98-.67-3.29,0-1.01.19-1.95.57-2.82.38-.87.9-1.62,1.55-2.27.65-.64,1.42-1.14,2.3-1.51.88-.36,1.82-.54,2.81-.54.56,0,1.13.07,1.72.2.59.14,1.13.34,1.61.62.49.28.89.64,1.21,1.09.32.44.48.99.48,1.63,0,.43-.14.79-.42,1.07-.28.28-.68.42-1.2.42-.35,0-.69-.08-1.01-.23-.32-.15-.48-.42-.48-.79,0-.29.07-.64.22-1.06.14-.41.22-.76.22-1.02,0-.48-.24-.84-.71-1.1-.48-.26-1.02-.39-1.65-.39-.45,0-.93.06-1.41.17s-.93.4-1.33.85c-.4.46-.73,1.14-.99,2.05-.26.91-.39,2.15-.39,3.72,0,.89.06,1.73.17,2.51.11.79.32,1.47.62,2.06.3.59.71,1.06,1.24,1.4s1.22.51,2.06.51c.91,0,1.66-.13,2.25-.4.59-.27,1.06-.59,1.4-.98.34-.38.59-.77.76-1.16.17-.39.29-.71.37-.96l.47.09Z"/></g><g class="cls-8"><path class="cls-6" d="m105.15-1.52c-1.09,2.91-2.7,4.25-5.09,4.25-3.19,0-5.95-2.95-5.95-6.33s2.85-6.48,6.23-6.48c2.36,0,4.34,1.46,4.34,3.19,0,.96-.59,1.61-1.46,1.61-.81,0-1.4-.62-1.4-1.46,0-.46.22-.99.62-1.46.09-.09.12-.13.12-.22,0-.47-1.12-.96-2.14-.96-1.12,0-1.95.43-2.42,1.27-.4.78-.62,2.57-.62,5.34,0,2.26.16,3.16.65,3.81.5.62,1.27.96,2.2.96,1.92,0,3.35-1.24,4.13-3.54h.78Z"/></g><g class="cls-8"><path class="cls-7" d="m119.81-20.79h5.06V1.14h2.39v.43h-5V-1.12h-.06c-.08.25-.21.55-.37.9-.17.35-.41.69-.73,1.03s-.72.61-1.21.85c-.49.24-1.08.36-1.78.36-.91,0-1.78-.2-2.59-.59-.82-.39-1.54-.92-2.16-1.58-.62-.66-1.11-1.42-1.47-2.28-.36-.86-.54-1.76-.54-2.71s.18-1.82.53-2.67c.35-.85.83-1.59,1.43-2.22.6-.63,1.29-1.14,2.08-1.52.79-.38,1.62-.57,2.51-.57,1.14,0,2.06.28,2.76.84s1.2,1.24,1.49,2.05h.06v-11.11h-2.39v-.43Zm-5.37,15.27c0,1.08.03,2.05.09,2.93s.22,1.63.47,2.25.62,1.1,1.12,1.43c.5.33,1.17.5,2.02.5s1.57-.19,2.09-.56c.53-.37.94-.85,1.23-1.44.29-.59.48-1.24.59-1.97.1-.72.16-1.43.16-2.11,0-.81-.02-1.5-.05-2.09-.03-.59-.09-1.11-.17-1.57-.08-.45-.2-.85-.34-1.18-.15-.33-.32-.64-.53-.93-.31-.41-.71-.76-1.21-1.02s-1.13-.4-1.89-.4c-.72,0-1.32.15-1.78.44-.47.29-.83.7-1.09,1.24-.26.54-.44,1.18-.54,1.94s-.15,1.61-.15,2.56Z"/></g><g class="cls-8"><path class="cls-6" d="m123.81,1.8h2.08v.62h-4.87V.06c-.68,1.7-1.98,2.67-3.63,2.67-2.85,0-5.21-2.91-5.21-6.45s2.33-6.36,5.15-6.36c1.55,0,2.67.78,3.69,2.51v-10.08h-2.08v-.62h4.87V1.8Zm-7.82-10.2c-.37.62-.5,1.77-.5,5.11,0,2.85.06,3.47.37,4.1.37.74,1.08,1.21,1.83,1.21,1.86,0,3.26-2.45,3.26-5.74s-1.4-5.65-3.29-5.65c-.65,0-1.27.37-1.67.96Z"/></g><g class="cls-8"><path class="cls-7" d="m135.5-6.12c0,.21,0,.42-.02.64-.01.22-.02.49-.02.82,0,.68.04,1.4.12,2.14.08.74.26,1.42.54,2.02.28.6.69,1.1,1.24,1.49.55.39,1.28.59,2.19.59s1.66-.13,2.25-.4c.59-.27,1.06-.59,1.4-.98.34-.38.59-.77.76-1.16.17-.39.29-.71.37-.96l.47.09c-.06.23-.18.55-.36.98s-.45.85-.84,1.27c-.38.42-.9.8-1.55,1.12s-1.49.48-2.53.48-1.99-.17-2.87-.5c-.88-.33-1.64-.81-2.28-1.43s-1.14-1.36-1.49-2.22c-.35-.86-.53-1.82-.53-2.87,0-.91.18-1.79.54-2.65.36-.86.86-1.62,1.49-2.28.63-.66,1.37-1.19,2.22-1.6.85-.4,1.76-.61,2.73-.61.58,0,1.2.1,1.86.31.66.21,1.28.54,1.85,1.01.57.47,1.04,1.08,1.43,1.85.38.77.57,1.72.57,2.85h-9.56Zm6.39-.43c.04-.29.06-.56.06-.81v-.78c0-.7-.07-1.28-.2-1.74-.14-.45-.32-.82-.56-1.09-.24-.27-.53-.46-.87-.57-.34-.11-.71-.17-1.1-.17-.7,0-1.28.14-1.74.42-.46.28-.82.66-1.09,1.13-.27.48-.47,1.02-.6,1.65-.14.62-.22,1.27-.26,1.95h6.36Z"/></g><g class="cls-8"><path class="cls-6" d="m136.15-4.69v.9c0,3.07.06,3.72.4,4.37.47.93,1.36,1.43,2.54,1.43,1.98,0,3.54-1.37,4.12-3.69h.74c-.5,2.61-2.57,4.4-5.06,4.4-3.16,0-5.98-3.01-5.98-6.42s2.73-6.39,5.83-6.39c1.92,0,3.63.93,4.62,2.51.53.84.74,1.58.81,2.88h-8.03Zm4.81-.62c0-2.05-.03-2.3-.25-2.85-.28-.78-1.02-1.21-1.98-1.21-1.02,0-1.86.4-2.23,1.12q-.34.62-.34,2.95h4.81Z"/></g><g class="cls-8"><path class="cls-7" d="m149.64,1.14h2.39v-12.44h-2.39v-.43h2.39v-1.65c0-.72.04-1.35.11-1.88.07-.53.17-.99.3-1.4.12-.4.27-.76.43-1.06.17-.3.35-.57.56-.82.54-.68,1.21-1.28,2.02-1.78.81-.51,1.66-.76,2.58-.76.68,0,1.27.1,1.75.29s.89.44,1.19.73c.31.29.54.6.68.95.14.34.22.65.22.92,0,.39-.11.76-.34,1.09-.23.33-.61.5-1.15.5-.27,0-.57-.06-.92-.19-.34-.12-.51-.39-.51-.81,0-.35.1-.67.29-.95.2-.28.3-.59.3-.95,0-.45-.19-.76-.56-.92-.37-.16-.76-.23-1.15-.23-.85,0-1.58.37-2.2,1.12-.62.74-.93,1.9-.93,3.48v4.31h3.85v.43h-3.85V1.14h2.82v.43h-7.88v-.43Z"/></g><g class="cls-8"><path class="cls-6" d="m155.98,1.8h2.54v.62h-7.41v-.62h2.08v-10.95h-2.08v-.62h2.08v-2.51c0-2.23.31-3.38,1.18-4.53.9-1.12,2.11-1.77,3.38-1.77,1.49,0,2.73.93,2.73,2.05,0,.78-.59,1.43-1.27,1.43s-1.24-.59-1.24-1.33c0-.46.19-.9.56-1.3-.25-.15-.5-.22-.87-.22-.62,0-1.12.31-1.4.87-.28.53-.28.68-.28,3.13v4.19h2.82v.62h-2.82V1.8Z"/></g><g class="cls-8"><path class="cls-7" d="m166.94-.44c0-.56.1-1.04.31-1.44s.46-.76.76-1.06c.3-.3.62-.54.96-.73.34-.19.65-.34.92-.47-1.2-.83-1.8-1.94-1.8-3.35,0-.72.18-1.38.53-1.95.35-.58.8-1.07,1.33-1.47.54-.4,1.13-.71,1.78-.92.65-.21,1.28-.31,1.88-.31.93,0,1.73.19,2.41.56.67.37,1.16.71,1.47,1.02.23-.39.56-.76,1.01-1.09.44-.33,1-.5,1.66-.5.41,0,.8.09,1.15.26.35.18.53.55.53,1.13,0,.37-.12.65-.36.84-.24.19-.48.28-.73.28-.29,0-.5-.08-.62-.25-.12-.16-.23-.34-.33-.53-.09-.19-.19-.36-.29-.53-.1-.17-.26-.25-.47-.25s-.42.09-.64.26c-.22.18-.41.38-.57.6.19.21.42.56.71,1.06.29.5.43,1.12.43,1.86,0,.62-.16,1.19-.47,1.71-.31.52-.72.97-1.23,1.37-.51.39-1.1.7-1.77.91-.67.22-1.36.33-2.06.33s-1.35-.1-1.89-.3c-.54-.19-.95-.37-1.24-.51-.23.1-.47.22-.73.34-.26.12-.5.28-.71.46s-.4.41-.54.67c-.15.26-.22.56-.22.88,0,.31.06.57.19.78.12.21.28.36.48.46.2.1.42.18.67.22s.51.06.78.06h4.9c1.45,0,2.6.35,3.46,1.04.86.69,1.29,1.79,1.29,3.28,0,.91-.2,1.74-.59,2.48-.39.74-.92,1.39-1.57,1.94-.65.55-1.4.97-2.25,1.27-.85.3-1.72.45-2.61.45-.81,0-1.55-.09-2.22-.28s-1.26-.44-1.75-.76c-.5-.32-.89-.71-1.16-1.16s-.42-.96-.42-1.52.11-1.03.33-1.47.5-.84.84-1.18c.34-.34.73-.63,1.16-.88.44-.25.87-.45,1.3-.62v-.06c-1.37,0-2.37-.22-3.03-.67-.65-.44-.98-1.2-.98-2.28Zm4.66,2.95c-.27.16-.54.34-.82.51-.28.17-.53.4-.74.67-.22.27-.39.58-.53.95-.14.36-.2.81-.2,1.35,0,.74.13,1.36.39,1.85.26.49.59.88.99,1.18.4.3.85.51,1.35.64s.98.19,1.46.19c.74,0,1.42-.11,2.03-.34.61-.23,1.14-.53,1.58-.92.44-.38.79-.82,1.02-1.32.24-.5.36-1.02.36-1.55,0-1.16-.32-1.98-.95-2.47-.63-.49-1.49-.73-2.59-.73h-3.35Zm5.03-10.09c0-.48-.03-.96-.09-1.44-.06-.48-.19-.93-.39-1.33-.2-.4-.5-.73-.9-.98-.4-.25-.95-.37-1.63-.37-1.05,0-1.85.32-2.39.96-.54.64-.81,1.7-.81,3.17,0,.62.05,1.18.14,1.68.09.5.26.93.51,1.29s.58.64.99.82c.41.19.94.28,1.58.28,1.07,0,1.84-.34,2.3-1.01.46-.67.68-1.69.68-3.06Z"/></g><g class="cls-8"><path class="cls-6" d="m176.05,1.74c1.33,0,1.89.12,2.51.53.74.53,1.15,1.49,1.15,2.76,0,3.44-2.67,5.83-6.54,5.83-3.1,0-5.58-1.67-5.58-3.72,0-1.24.9-2.23,2.45-2.73-1.49-.4-2.33-1.37-2.33-2.73s.9-2.7,2.73-3.88c-1.33-1.06-1.92-2.14-1.92-3.54,0-2.45,2.11-4.34,4.9-4.34,1.46,0,2.64.43,3.54,1.27.87-.93,1.49-1.27,2.23-1.27.84,0,1.43.56,1.43,1.4,0,.68-.5,1.18-1.12,1.18s-.93-.31-1.05-.93c-.06-.34-.16-.5-.34-.5-.22,0-.34.09-.71.5.65.87.96,1.77.96,2.76,0,2.54-2.05,4.28-5.02,4.28-.9,0-1.46-.12-2.29-.49-1.36.87-2.08,1.73-2.08,2.54,0,.87.53,1.15,2.11,1.15q.31,0,2.42-.03c.12-.03.78-.03,1.67-.03h.9Zm-6.58,5.09c0,1.92,1.52,3.26,3.78,3.26,3.1,0,5.49-1.89,5.49-4.37,0-.96-.47-1.3-1.74-1.3-.12,0-.71,0-1.49.03-.62.03-2.88.06-3.26.06-.78,0-1.05,0-1.74-.09-.74.78-1.05,1.49-1.05,2.42Zm2.26-15.38c-.22.5-.28,1.52-.28,3.6,0,2.26.43,2.91,1.92,2.91.78,0,1.33-.25,1.64-.78.28-.46.37-1.21.37-3.23,0-1.86-.06-2.42-.34-2.79-.28-.43-.78-.62-1.64-.62s-1.46.28-1.68.9Z"/></g><g class="cls-8"><path class="cls-7" d="m186.33,1.14h2.39v-21.5h-2.39v-.43h5.06v12.19h.06c.1-.27.28-.6.53-1.01.25-.4.58-.79,1.01-1.15.42-.36.94-.67,1.55-.93.61-.26,1.34-.39,2.19-.39,1.37,0,2.48.33,3.34.99.86.66,1.29,1.72,1.29,3.17V1.14h2.39v.43h-7.45v-.43h2.39v-10.02c0-.81-.19-1.47-.57-1.99-.38-.52-.98-.78-1.78-.78-.66,0-1.29.14-1.89.43-.6.29-1.13.69-1.58,1.21-.45.52-.81,1.13-1.07,1.83s-.39,1.47-.39,2.3V1.14h2.39v.43h-7.45v-.43Z"/></g><g class="cls-8"><path class="cls-6" d="m189.32-17.65h-2.08v-.62h4.87V-7.57c1.09-1.74,2.51-2.51,4.56-2.51,1.4,0,2.57.4,3.19,1.15.53.65.65,1.18.65,3.35V1.8h2.05v.62h-6.7v-.62h1.86v-7.38c0-2.14-.06-2.48-.34-2.92-.31-.43-.9-.68-1.61-.68-1.4,0-2.6.84-3.16,2.2-.37.93-.5,1.99-.5,4.28V1.8h1.86v.62h-6.73v-.62h2.08v-19.45Z"/></g><g class="cls-8"><path class="cls-7" d="m208.31,1.14h2.39v-12.44h-2.39v-.43h5.06V1.14h2.39v.43h-7.45v-.43Zm2.02-20.11c0-.46.16-.84.48-1.16s.71-.48,1.16-.48.84.16,1.16.48.48.71.48,1.16-.16.84-.48,1.16-.71.48-1.16.48-.84-.16-1.16-.48-.48-.71-.48-1.16Z"/></g><g class="cls-8"><path class="cls-6" d="m210.69-9.15h-2.08v-.62h4.87V1.8h2.05v.62h-6.92v-.62h2.08v-10.95Zm3.01-6.95c0,.99-.78,1.77-1.73,1.77s-1.71-.78-1.71-1.8.71-1.74,1.71-1.74,1.73.78,1.73,1.77Z"/></g><g class="cls-8"><path class="cls-7" d="m222.55-11.73h5.06V2.2c0,.99-.03,1.82-.08,2.47-.05.65-.12,1.18-.2,1.6s-.18.74-.28.98c-.11.24-.21.46-.31.67-.25.5-.53.91-.85,1.24-.32.33-.65.59-.99.79-.34.2-.69.33-1.04.4-.35.07-.67.11-.96.11-.33,0-.69-.06-1.09-.17-.39-.11-.76-.29-1.1-.51s-.63-.52-.87-.88-.36-.78-.36-1.26.14-.87.4-1.12c.27-.25.6-.37.99-.37s.65.1.84.29.28.46.28.79c0,.25-.04.48-.11.71-.07.23-.11.52-.11.87,0,.41.13.72.4.92.27.2.57.3.9.3.6,0,1.06-.24,1.38-.73.32-.49.48-1.27.48-2.34V-11.3h-2.39v-.43Zm2.02-7.23c0-.46.16-.84.48-1.16s.71-.48,1.16-.48.84.16,1.16.48c.32.32.48.71.48,1.16s-.16.84-.48,1.16c-.32.32-.71.48-1.16.48s-.84-.16-1.16-.48-.48-.71-.48-1.16Z"/></g><g class="cls-8"><path class="cls-6" d="m222.7-9.15v-.62h4.87V4.31c0,2.67-.16,3.63-.71,4.56-.74,1.21-2.05,1.95-3.38,1.95-1.61,0-2.82-.93-2.82-2.17,0-.87.5-1.43,1.27-1.43s1.24.53,1.24,1.3c0,.19,0,.22-.09.74-.03.06-.03.15-.03.25,0,.46.19.65.59.65.5,0,.87-.37,1.06-.99.09-.37.09-.65.09-2.3V-9.15h-2.08Zm5.12-6.95c0,.99-.78,1.77-1.74,1.77s-1.7-.78-1.7-1.8.71-1.74,1.7-1.74,1.74.78,1.74,1.77Z"/></g><g class="cls-8"><path class="cls-7" d="m233.58,1.14h2.39v-21.5h-2.39v-.43h5.06V-5.96h.34l6.17-5.34h-2.2v-.43h4.81v.43h-1.86l-4.84,4.16,6.86,8.29h1.33v.43h-6.98v-.43h2.2l-5.49-6.67h-.34V1.14h1.71v.43h-6.77v-.43Z"/></g><g class="cls-8"><path class="cls-6" d="m238.76,1.8h2.05v.62h-6.91v-.62h2.08v-19.45h-2.08v-.62h4.87V1.8Zm8.4,0h1.43v.62h-6.67v-.62h1.58l-4.47-5.89,5.18-5.05h-3.04v-.62h6.26v.62h-2.17l-3.88,3.75,5.77,7.2Z"/></g><g class="cls-8"><path class="cls-7" d="m253.84,1.14h2.39v-21.5h-2.39v-.43h5.06V1.14h2.39v.43h-7.45v-.43Z"/></g><g class="cls-8"><path class="cls-6" d="m256-17.65h-2.08v-.62h4.87V1.8h2.05v.62h-6.91v-.62h2.08v-19.45Z"/></g><g class="cls-8"><path class="cls-7" d="m265.62,1.14h2.39v-12.44h-2.39v-.43h5v3.26h.06c.43-1.24,1.06-2.15,1.88-2.73.82-.58,1.81-.87,2.96-.87,1.04,0,1.95.23,2.75.68.8.46,1.32,1.21,1.57,2.27h.06c.14-.37.34-.73.59-1.09.25-.35.56-.67.93-.95.37-.28.81-.5,1.32-.67.51-.17,1.08-.25,1.72-.25,3.02,0,4.53,1.54,4.53,4.62V1.14h2.39v.43h-7.45v-.43h2.39v-10.55c0-.7-.19-1.25-.58-1.64-.38-.39-.9-.59-1.57-.59-.52,0-1.04.1-1.55.29-.52.2-.98.49-1.4.89-.41.39-.75.9-1.01,1.52-.26.62-.39,1.34-.39,2.17V1.14h2.39v.43h-7.45v-.43h2.39v-10.12c0-.91-.19-1.58-.56-2.02-.37-.43-.87-.65-1.49-.65-.43,0-.91.11-1.43.33-.52.22-1,.56-1.44,1.02-.44.46-.82,1.07-1.12,1.81-.3.74-.45,1.66-.45,2.73V1.14h2.39v.43h-7.45v-.43Z"/></g><g class="cls-8"><path class="cls-6" d="m269.8-9.15h-2.08v-.62h4.87v1.55c1.09-1.27,2.36-1.86,4-1.86.99,0,1.86.25,2.51.74.43.31.65.59.87,1.3,1.02-1.4,2.39-2.05,4.25-2.05,1.27,0,2.39.43,2.98,1.18.43.59.62,1.4.62,3.07V1.8h2.05v.62h-6.7v-.62h1.86v-7.63c0-2.08-.06-2.45-.5-2.88-.28-.28-.74-.43-1.24-.43-1.06,0-2.08.62-2.58,1.55-.53,1.02-.53,1.21-.53,6.05V1.8h1.86v.62h-6.51v-.62h1.86v-7.63c0-1.49-.09-2.14-.34-2.54-.25-.4-.81-.68-1.43-.68-1.06,0-2.11.65-2.51,1.52-.4.84-.53,2.42-.53,5.98V1.8h1.86v.62h-6.73v-.62h2.08v-10.95Z"/></g><g class="cls-8"><path class="cls-7" d="m295.86,1.14h2.39v-12.44h-2.39v-.43h5v3.32h.06c.12-.27.31-.61.54-1.02.24-.41.56-.82.98-1.21s.93-.73,1.55-1.01c.62-.28,1.38-.42,2.27-.42,1.37,0,2.48.33,3.34.99.86.66,1.29,1.72,1.29,3.17V1.14h2.39v.43h-7.45v-.43h2.39v-10.02c0-.81-.19-1.47-.58-1.99-.38-.52-.98-.78-1.78-.78-.66,0-1.29.14-1.89.43-.6.29-1.13.69-1.58,1.21-.45.52-.81,1.13-1.07,1.83-.26.7-.39,1.47-.39,2.3V1.14h2.39v.43h-7.45v-.43Z"/></g><g class="cls-8"><path class="cls-6" d="m299.29-9.15h-2.08v-.62h4.87v1.61c1.03-1.33,2.23-1.92,3.88-1.92,1.27,0,2.51.47,3.19,1.21.68.78.87,1.49.87,3.78V1.8h2.05v.62h-6.7v-.62h1.86V-2.98c0-3.69-.12-4.81-.59-5.43-.34-.47-.9-.74-1.52-.74-.81,0-1.77.5-2.27,1.24-.62.87-.78,2.2-.78,6.02V1.8h1.86v.62h-6.73v-.62h2.08v-10.95Z"/></g><g class="cls-9"><path class="cls-7" d="m67.96,1.24c-.27.21-.59.39-.96.54-.37.15-.83.23-1.36.23-.99,0-1.71-.21-2.16-.64s-.75-1.02-.92-1.79h-.06c-.08.19-.2.42-.34.7-.15.28-.37.55-.67.81-.3.26-.7.48-1.19.65-.5.18-1.13.27-1.89.27-.87,0-1.56-.1-2.08-.3-.52-.2-.92-.44-1.21-.73-.29-.29-.48-.61-.57-.98-.09-.36-.14-.7-.14-1.01,0-.72.14-1.3.43-1.74.29-.43.67-.78,1.13-1.04.46-.26.98-.47,1.55-.64.57-.16,1.14-.34,1.72-.53.68-.23,1.25-.42,1.69-.59.44-.17.79-.37,1.04-.6.25-.24.42-.54.51-.9.09-.36.14-.85.14-1.47,0-.5-.03-.94-.09-1.33-.06-.39-.18-.73-.34-1.01s-.4-.49-.71-.64c-.31-.15-.72-.22-1.24-.22-.68,0-1.25.12-1.69.36-.45.24-.67.63-.67,1.16,0,.35.03.7.09,1.04s.09.59.09.76c0,.29-.1.53-.31.73-.21.2-.51.29-.9.29-.68,0-1.11-.12-1.27-.37-.17-.25-.25-.57-.25-.96,0-.45.1-.89.31-1.3.21-.41.51-.78.92-1.1.4-.32.91-.57,1.52-.76.61-.19,1.31-.28,2.09-.28.95,0,1.75.12,2.39.36.64.24,1.16.56,1.55.96.39.4.67.86.84,1.36.17.51.25,1.04.25,1.6V-.13c0,.6.09,1,.28,1.21.19.21.45.31.81.31.23,0,.47-.04.71-.12.25-.08.49-.21.71-.37l.25.34Zm-5.43-7.26h-.06c-.04.27-.38.54-1.02.81l-2.33.93c-.66.27-1.17.65-1.52,1.13-.35.48-.53,1.09-.53,1.82,0,.31.03.63.09.96s.18.62.34.88c.17.26.4.47.7.64.3.16.69.25,1.16.25.68,0,1.24-.14,1.66-.43.42-.29.74-.65.96-1.09s.36-.9.44-1.41c.07-.51.11-.97.11-1.38v-3.1Z"/></g><g class="cls-8"><path class="cls-6" d="m67.15,1.8c-.71.68-1.33.93-2.14.93-1.52,0-2.42-.84-2.6-2.42-.9,1.55-2.36,2.42-4.03,2.42-1.95,0-3.29-1.18-3.29-2.88,0-1.52.99-2.73,2.82-3.47,1.15-.43,2.42-.65,4.5-.68v-2.14c0-1.77-.06-2.08-.4-2.48-.31-.37-.99-.62-1.67-.62-1.12,0-2.36.68-2.36,1.3,0,.13.03.19.16.34.34.37.43.62.43.96,0,.78-.56,1.33-1.27,1.33-.78,0-1.33-.56-1.33-1.36,0-1.64,2.29-3.1,4.87-3.1,1.52,0,2.92.5,3.66,1.3.68.71.71.87.71,3.6V-1.77q0,2.95.12,3.23c.09.28.22.37.53.37s.37-.03.93-.5l.37.47Zm-4.74-5.58c-1.64.06-2.42.25-3.16.71-.93.56-1.4,1.34-1.4,2.36,0,1.3.68,2.08,1.86,2.08.93,0,1.71-.5,2.2-1.4.34-.59.5-1.52.5-3.13v-.62Z"/></g><g class="cls-9"><path class="cls-5" d="m36.26,204.47c-.42.32-.92.61-1.51.85-.58.24-1.3.36-2.14.36-1.56,0-2.68-.33-3.38-1-.7-.66-1.18-1.6-1.43-2.8h-.1c-.13.29-.31.66-.53,1.1-.23.44-.58.86-1.05,1.26-.47.41-1.09.75-1.87,1.02-.78.28-1.77.42-2.97.42-1.36,0-2.45-.15-3.26-.46-.81-.31-1.44-.69-1.9-1.14-.46-.45-.75-.96-.9-1.53-.15-.57-.22-1.09-.22-1.58,0-1.14.23-2.04.68-2.72.45-.68,1.04-1.22,1.77-1.63.73-.4,1.54-.74,2.43-1,.89-.26,1.79-.53,2.7-.83,1.07-.36,1.95-.66,2.65-.92.7-.26,1.24-.58,1.63-.95.39-.37.66-.84.8-1.41.14-.57.22-1.34.22-2.31,0-.78-.05-1.48-.14-2.09-.1-.62-.28-1.14-.54-1.58s-.63-.77-1.12-1c-.49-.23-1.14-.34-1.94-.34-1.07,0-1.95.19-2.65.56-.7.37-1.05.98-1.05,1.82,0,.55.05,1.09.15,1.63s.15.93.15,1.19c0,.46-.16.83-.49,1.14-.32.31-.8.46-1.41.46-1.07,0-1.74-.19-1.99-.58-.26-.39-.39-.89-.39-1.51,0-.71.16-1.39.49-2.04.32-.65.8-1.22,1.43-1.73.63-.5,1.42-.9,2.38-1.19.96-.29,2.05-.44,3.28-.44,1.49,0,2.74.19,3.74.56,1.01.37,1.81.87,2.43,1.51.62.63,1.05,1.35,1.31,2.14.26.8.39,1.63.39,2.5v12.11c0,.94.15,1.57.44,1.9.29.32.71.49,1.26.49.36,0,.73-.06,1.12-.19.39-.13.76-.32,1.12-.59l.39.54Zm-8.51-11.38h-.1c-.07.42-.6.84-1.6,1.26l-3.65,1.46c-1.04.42-1.83,1.01-2.38,1.78-.55.76-.83,1.71-.83,2.85,0,.49.05.99.15,1.51s.28.98.53,1.38c.26.4.62.74,1.09,1,.47.26,1.08.39,1.82.39,1.07,0,1.94-.23,2.6-.68.66-.46,1.17-1.02,1.51-1.7s.57-1.42.68-2.21c.11-.8.17-1.52.17-2.16v-4.86Z"/></g><g class="cls-8"><path class="cls-4" d="m83.85,204.06c-1.12,1.07-2.09,1.46-3.35,1.46-2.38,0-3.79-1.31-4.08-3.79-1.41,2.43-3.69,3.79-6.32,3.79-3.06,0-5.15-1.85-5.15-4.52,0-2.38,1.56-4.28,4.42-5.44,1.8-.68,3.79-1.02,7.05-1.07v-3.35c0-2.77-.1-3.26-.63-3.89-.48-.58-1.56-.97-2.62-.97-1.75,0-3.69,1.07-3.69,2.04,0,.2.05.29.24.54.53.58.68.97.68,1.51,0,1.21-.87,2.09-1.99,2.09-1.21,0-2.09-.87-2.09-2.14,0-2.58,3.59-4.86,7.63-4.86,2.38,0,4.57.78,5.73,2.04,1.07,1.12,1.12,1.36,1.12,5.63v5.35q0,4.62.19,5.06c.15.44.34.58.83.58s.58-.05,1.46-.78l.58.73Zm-7.44-8.75c-2.58.1-3.79.39-4.96,1.12-1.46.88-2.19,2.09-2.19,3.7,0,2.04,1.07,3.26,2.92,3.26,1.46,0,2.67-.78,3.45-2.19.53-.92.78-2.38.78-4.91v-.97Z"/></g><circle class="cls-12" cx="27.14" cy="193.93" r="2.48"/><circle class="cls-12" cx="18.5" cy="188.83" r="3.49"/><circle class="cls-12" cx="76.06" cy="194.43" r="2.48"/><circle class="cls-12" cx="255.22" cy="138.14" r="3.61"/><circle class="cls-11" cx="204.22" cy="139.23" r="3.61"/><circle class="cls-12" cx="274.19" cy="181.68" r="5.8"/><circle class="cls-12" cx="325.02" cy="185.66" r="4.49"/><circle class="cls-12" cx="67.97" cy="190.07" r="3.11"/><line class="cls-11" x1="198.45" y1="112.61" x2="198.45" y2="147.24"/><line class="cls-12" x1="249.38" y1="113.25" x2="249.38" y2="148.86"/><text class="cls-3" transform="translate(121.49 220.66)"><tspan x="0" y="0">J</tspan></text><text class="cls-3" transform="translate(63.48 306.46)"><tspan x="0" y="0">K</tspan></text><text class="cls-3" transform="translate(202.51 288.92)"><tspan x="0" y="0">Q</tspan></text><text class="cls-1" transform="translate(177.16 220.66)"><tspan x="0" y="0">J</tspan></text><text class="cls-2" transform="translate(122.74 306.46)"><tspan x="0" y="0">K</tspan></text><text class="cls-1" transform="translate(264.04 288.92)"><tspan x="0" y="0">Q</tspan></text><circle class="cls-12" cx="181.78" cy="220.19" r="5.65"/><circle class="cls-12" cx="139.65" cy="285.21" r="5.65"/><circle class="cls-12" cx="288.34" cy="296.17" r="10.96"/><circle class="cls-12" cx="235.26" cy="296.17" r="10.96"/><circle class="cls-12" cx="125.86" cy="216.12" r="5.8"/><circle class="cls-12" cx="80.02" cy="283.53" r="5.8"/></g></g></svg>