<?xml version="1.0" encoding="UTF-8"?><svg id="Layer_1" xmlns="http://www.w3.org/2000/svg" viewBox="0 0 49.87 38.97"><defs><style>.cls-1{fill:#261324;}.cls-2{fill:#dddeee;opacity:.5;}</style></defs><path class="cls-1" d="m29.66,19.41c-.18.2-.32.33-.43.39-.11.06-.27.08-.49.04-.25-.02-.55-.04-.9-.08-.35-.04-.7-.08-1.05-.12-.35-.04-.68-.08-.99-.11-.31-.03-.55-.04-.73-.04.02.14.02.3.01.46,0,.16-.02.33-.04.51.67.13,1.07.44,1.21.94.04.14,0,.32-.11.54s-.37.62-.78,1.21c-.2.29-.32.57-.38.84-.05.27-.06.57-.03.89.09,0,.22,0,.38-.01.16,0,.26-.02.3-.04-.11-.52-.12-.81-.03-.86.09-.05.22.02.38.22.14.18.31.32.5.42.19.1.43.19.72.28.22.05.4.15.55.3.15.14.27.3.36.46.09.16.15.31.18.45.03.14.02.22-.01.26-.2.2-.41.33-.65.41-.23.07-.44.09-.62.05-.09-.02-.22-.03-.38-.04-.16,0-.34-.01-.53-.01s-.37,0-.54.03c-.17.02-.31.04-.42.05,0,.18,0,.34-.03.47-.02.14-.05.3-.08.5.77.13,1.36.32,1.77.59.4.27.61.66.61,1.16,0,.14-.05.26-.16.35s-.26.12-.46.09c-.2-.03-.45-.13-.76-.3-.31-.17-.66-.44-1.05-.8,0,.63-.05,1.45-.15,2.47-.1,1.02-.27,2.07-.5,3.15-.02.11-.07.17-.15.19-.08.02-.16-.02-.24-.12-.08-.1-.16-.26-.24-.49-.08-.23-.13-.53-.15-.9-.04-.56-.06-1.07-.08-1.54-.02-.47-.04-.93-.05-1.38-.02-.45-.04-.92-.05-1.42-.02-.5-.04-1.05-.05-1.66-.11.02-.25.05-.43.09-.18.05-.37.09-.57.15-.2.05-.4.12-.61.19-.21.07-.37.14-.5.22-.49.25-.9.32-1.24.2-.34-.12-.5-.4-.46-.85.04-.58.17-1.04.41-1.4.23-.36.52-.56.86-.59.67-.52,1.15-.95,1.44-1.3.3-.34.48-.67.55-.97-.18.09-.39.2-.62.34-.23.14-.48.28-.73.43-.25.15-.5.31-.74.47-.24.16-.45.31-.63.46-.14.09-.32.24-.54.46-.22.22-.44.44-.67.67-.58,1.53-1.2,2.74-1.86,3.62s-1.24,1.36-1.73,1.43c-.2.04-.43-.06-.69-.3-.26-.23-.51-.51-.74-.84-.23-.32-.43-.66-.58-1-.15-.34-.23-.61-.23-.81,0-.31.1-.63.31-.97.21-.34.48-.68.81-1.03.33-.34.71-.68,1.12-1.01s.84-.63,1.27-.9c-.4.11-.72.17-.97.18-.25,0-.42-.05-.51-.19-.09-.14-.11-.35-.05-.63.05-.29.2-.67.43-1.16-.22.14-.49.32-.81.51-.32.2-.66.4-1,.59s-.66.38-.96.54c-.3.16-.53.27-.69.32-.59.2-1.05.25-1.38.16-.32-.09-.62-.4-.89-.92-.09-.23-.14-.43-.16-.58-.02-.15.03-.27.15-.36.12-.09.31-.17.57-.23.26-.06.62-.13,1.09-.2.34-.05.8-.19,1.38-.41.58-.22,1.2-.49,1.88-.84.67-.34,1.37-.73,2.08-1.16.71-.43,1.37-.88,1.98-1.35-.38-.05-.68-.11-.92-.16-.23-.05-.41-.13-.54-.22-.13-.09-.21-.2-.24-.34-.04-.13-.05-.31-.05-.53s0-.4.03-.54c.02-.14.07-.26.15-.35.08-.09.2-.17.35-.23.15-.06.35-.13.61-.2.47-.14.98-.45,1.54-.93.56-.48,1.11-.97,1.65-1.47-.29.14-.53.26-.73.34-.2.08-.41.16-.63.24s-.5.17-.82.27c-.32.1-.76.22-1.3.36-.32.09-.59.14-.81.15-.22,0-.39-.04-.53-.14-.13-.1-.23-.26-.28-.49-.05-.23-.08-.54-.08-.93,0-.52.04-.9.13-1.15s.26-.38.51-.42c.13-.02.28-.13.47-.32.19-.2.37-.42.54-.67.17-.25.31-.5.4-.76.1-.25.12-.43.07-.54-.2-.34-.2-.55-.01-.63s.66.08,1.42.47c.05.04.13.12.22.24.09.13.18.28.27.46.09.18.17.38.24.61.07.23.12.45.13.66.16-.02.37-.05.62-.09.25-.04.51-.09.78-.15.27-.05.53-.11.77-.18.24-.06.43-.12.55-.18.32-.13.65-.14.99-.04.33.1.62.25.86.46.24.21.41.44.5.7.09.26.05.49-.11.69-.13.14-.31.3-.54.47-.23.17-.54.36-.92.58-.38.22-.83.46-1.36.73-.53.27-1.17.57-1.9.89,1.01-.22,1.86-.31,2.55-.3.69.02,1.19.12,1.5.31s.4.45.28.77c-.12.32-.48.68-1.09,1.08.27.09.46.22.57.39.11.17.21.44.3.8.18-.04.46-.05.84-.05h.92c.34,0,.62-.06.84-.19.13-.09.37-.08.73.03.36.11.8.39,1.32.84.25.2.39.35.42.45.03.1-.03.22-.18.36Zm-12.42,6.43c-.2-.16-.48-.17-.84-.03-.36.14-.71.36-1.05.65-.34.29-.62.61-.82.96-.21.35-.25.65-.12.9.09.18.26.27.5.28s.49-.08.74-.26c.07-.05.18-.18.34-.39.15-.21.31-.44.49-.7.17-.26.33-.52.47-.78.14-.26.24-.47.3-.63Zm6.05-6.21c-.65.09-1.17.18-1.57.27-.4.09-.81.21-1.24.35-.32.22-.68.49-1.07.81-.39.32-.81.73-1.28,1.22.14.07.28.18.42.31.14.13.26.27.36.39.27-.16.63-.37,1.08-.62s.85-.48,1.22-.68c.38-.2.72-.37,1.03-.51.31-.14.61-.24.92-.3.07-.25.12-.49.14-.72.02-.23.02-.4,0-.53Zm-.24-1.46c-.02-.14-.05-.33-.08-.57-.04-.23-.07-.41-.11-.54-.16.05-.46.18-.9.36s-.89.39-1.35.61c-.46.22-.86.42-1.2.62-.34.2-.5.33-.49.4.07-.02.31-.07.73-.16.41-.09.85-.18,1.32-.28.47-.1.91-.19,1.32-.28.41-.09.67-.14.76-.16Z"/><path class="cls-2" d="m14.03,35.34c11.82-13.77,20.34-2.16,31.63-12.68-.83-14.09-13.26-21.01-26.8-18.55,0,0,10.7,8.35,3.46,18.28l-8.28,12.96Z"/></svg>